<svg version="1.1" viewBox="0.000000 0.000000 96.000000 96.000000" xmlns="http://www.w3.org/2000/svg" xmlns:xlink="http://www.w3.org/1999/xlink" id="Icons_LineStraight" overflow="hidden"><style>
.MsftOfcThm_Background1_Fill {
 fill:#FFFFFF; 
}
.MsftOfcThm_Background1_Stroke {
 stroke:#FFFFFF; 
}
</style>
<path d=" M 89.000000 45.000000 L 14.200000 45.000000 L 23.100000 36.099998 C 24.299999 34.900002 24.299999 33.000000 23.100000 31.900000 C 21.900000 30.700001 20.000000 30.700001 18.900000 31.900000 L 4.900000 45.900002 C 3.700000 47.099998 3.700000 49.000000 4.900000 50.099998 L 18.900000 64.099998 C 19.500000 64.699997 20.299999 65.000000 21.000000 65.000000 C 21.700001 65.000000 22.500000 64.699997 23.100000 64.099998 C 24.299999 62.900002 24.299999 61.000000 23.100000 59.900002 L 14.200000 51.000000 L 89.000000 51.000000 C 90.699997 51.000000 92.000000 49.700001 92.000000 48.000000 C 92.000000 46.299999 90.699997 45.000000 89.000000 45.000000 Z" stroke="#FFFFFF" stroke-width="1.000000" stroke-dasharray="" stroke-dashoffset="1.000000" stroke-opacity="1.000000" fill="#FFFFFF" fill-opacity="1.000000"/></svg>